<svg width="87" height="33" viewBox="0 0 87 33" fill="none" xmlns="http://www.w3.org/2000/svg">
<rect x="8.5" y="8.5" width="17" height="15" stroke="black" stroke-width="5"/>
<rect x="28" y="26" width="7" height="7" fill="black"/>
<path d="M44.868 22.68L43.608 20.986C43.2347 21.0607 42.8707 21.098 42.516 21.098C41.592 21.098 40.7427 20.8833 39.968 20.454C39.2027 20.0247 38.5913 19.4273 38.134 18.662C37.686 17.8873 37.462 17.0193 37.462 16.058C37.462 15.0967 37.686 14.2333 38.134 13.468C38.5913 12.7027 39.2027 12.1053 39.968 11.676C40.7427 11.2467 41.592 11.032 42.516 11.032C43.44 11.032 44.2847 11.2467 45.05 11.676C45.8247 12.1053 46.4313 12.7027 46.87 13.468C47.318 14.2333 47.542 15.0967 47.542 16.058C47.542 16.898 47.3693 17.668 47.024 18.368C46.688 19.0587 46.2167 19.6327 45.61 20.09L47.766 22.68H44.868ZM39.912 16.058C39.912 16.926 40.1453 17.6213 40.612 18.144C41.088 18.6573 41.7227 18.914 42.516 18.914C43.3 18.914 43.9253 18.6527 44.392 18.13C44.868 17.6073 45.106 16.9167 45.106 16.058C45.106 15.19 44.868 14.4993 44.392 13.986C43.9253 13.4633 43.3 13.202 42.516 13.202C41.7227 13.202 41.088 13.4587 40.612 13.972C40.1453 14.4853 39.912 15.1807 39.912 16.058ZM54.0392 21L51.8832 17.192H50.9592V21H48.9992V11.228H52.6672C53.4232 11.228 54.0672 11.3633 54.5992 11.634C55.1312 11.8953 55.5279 12.2547 55.7892 12.712C56.0599 13.16 56.1952 13.664 56.1952 14.224C56.1952 14.868 56.0085 15.4513 55.6352 15.974C55.2619 16.4873 54.7065 16.842 53.9692 17.038L56.3072 21H54.0392ZM50.9592 15.722H52.5972C53.1292 15.722 53.5259 15.596 53.7872 15.344C54.0485 15.0827 54.1792 14.7233 54.1792 14.266C54.1792 13.818 54.0485 13.4727 53.7872 13.23C53.5259 12.978 53.1292 12.852 52.5972 12.852H50.9592V15.722ZM57.464 17.094C57.464 16.31 57.618 15.6147 57.926 15.008C58.2433 14.4013 58.668 13.9347 59.2 13.608C59.7413 13.2813 60.3433 13.118 61.006 13.118C61.5846 13.118 62.0886 13.2347 62.518 13.468C62.9566 13.7013 63.3066 13.9953 63.568 14.35V13.244H65.542V21H63.568V19.866C63.316 20.23 62.966 20.5333 62.518 20.776C62.0793 21.0093 61.5706 21.126 60.992 21.126C60.3386 21.126 59.7413 20.958 59.2 20.622C58.668 20.286 58.2433 19.8147 57.926 19.208C57.618 18.592 57.464 17.8873 57.464 17.094ZM63.568 17.122C63.568 16.646 63.4746 16.24 63.288 15.904C63.1013 15.5587 62.8493 15.2973 62.532 15.12C62.2146 14.9333 61.874 14.84 61.51 14.84C61.146 14.84 60.81 14.9287 60.502 15.106C60.194 15.2833 59.942 15.5447 59.746 15.89C59.5593 16.226 59.466 16.6273 59.466 17.094C59.466 17.5607 59.5593 17.9713 59.746 18.326C59.942 18.6713 60.194 18.9373 60.502 19.124C60.8193 19.3107 61.1553 19.404 61.51 19.404C61.874 19.404 62.2146 19.3153 62.532 19.138C62.8493 18.9513 63.1013 18.69 63.288 18.354C63.4746 18.0087 63.568 17.598 63.568 17.122ZM69.7382 14.854V18.606C69.7382 18.8673 69.7989 19.0587 69.9202 19.18C70.0509 19.292 70.2656 19.348 70.5642 19.348H71.4742V21H70.2422C68.5902 21 67.7642 20.1973 67.7642 18.592V14.854H66.8402V13.244H67.7642V11.326H69.7382V13.244H71.4742V14.854H69.7382ZM76.328 21.126C75.5813 21.126 74.9093 20.9627 74.312 20.636C73.7146 20.3 73.2433 19.8287 72.898 19.222C72.562 18.6153 72.394 17.9153 72.394 17.122C72.394 16.3287 72.5666 15.6287 72.912 15.022C73.2666 14.4153 73.7473 13.9487 74.354 13.622C74.9606 13.286 75.6373 13.118 76.384 13.118C77.1306 13.118 77.8073 13.286 78.414 13.622C79.0206 13.9487 79.4966 14.4153 79.842 15.022C80.1966 15.6287 80.374 16.3287 80.374 17.122C80.374 17.9153 80.192 18.6153 79.828 19.222C79.4733 19.8287 78.988 20.3 78.372 20.636C77.7653 20.9627 77.084 21.126 76.328 21.126ZM76.328 19.418C76.6826 19.418 77.014 19.334 77.322 19.166C77.6393 18.9887 77.8913 18.7273 78.078 18.382C78.2646 18.0367 78.358 17.6167 78.358 17.122C78.358 16.3847 78.162 15.82 77.77 15.428C77.3873 15.0267 76.916 14.826 76.356 14.826C75.796 14.826 75.3246 15.0267 74.942 15.428C74.5686 15.82 74.382 16.3847 74.382 17.122C74.382 17.8593 74.564 18.4287 74.928 18.83C75.3013 19.222 75.768 19.418 76.328 19.418ZM83.7717 14.448C84.0237 14.0373 84.3504 13.7153 84.7517 13.482C85.1624 13.2487 85.629 13.132 86.1517 13.132V15.19H85.6337C85.0177 15.19 84.551 15.3347 84.2337 15.624C83.9257 15.9133 83.7717 16.4173 83.7717 17.136V21H81.8117V13.244H83.7717V14.448Z" fill="black"/>
</svg>
